<svg width="96" height="96" viewBox="0 0 96 96" fill="none" xmlns="http://www.w3.org/2000/svg">
<path d="M22.6108 60.0392V33.0167C22.6108 30.4777 24.1684 28.2053 26.5261 27.2986L36.2768 23.522C37.7597 22.9459 38.5064 21.2604 37.909 19.7988C34.5272 11.5203 41.2588 11.4563 44.1392 11.4563H62.8086C65.2622 11.4563 67.2572 13.4512 67.2572 15.9156V60.0392C67.2572 62.3649 65.3796 64.2425 63.0646 64.2425H26.8034C24.4884 64.2425 22.6108 62.3649 22.6108 60.0392Z" fill="white"/>
<path d="M63.0644 65.0424H26.8033C24.0509 65.0424 21.8105 62.802 21.8105 60.039V33.0165C21.8105 30.1681 23.5921 27.5757 26.2378 26.5515L35.9886 22.775C36.5113 22.5723 36.9274 22.1776 37.1514 21.6549C37.3648 21.1534 37.3754 20.5987 37.1727 20.0973C35.9352 17.0782 35.8605 14.7312 36.9487 13.1096C38.5916 10.6666 42.3361 10.6666 44.1391 10.6666H62.8084C65.6994 10.6666 68.0571 13.0243 68.0571 15.926V60.039C68.0571 62.7914 65.8168 65.0424 63.0644 65.0424ZM44.1391 12.2562C42.6135 12.2562 39.4451 12.2562 38.2822 13.9951C37.5141 15.1473 37.6315 16.9929 38.6556 19.4892C39.029 20.3853 39.0183 21.3881 38.6236 22.2843C38.2289 23.2017 37.5034 23.9058 36.5753 24.2686L26.8246 28.0451C24.787 28.8345 23.4214 30.8295 23.4214 33.0165V60.039C23.4214 61.9166 24.947 63.4421 26.8139 63.4421H63.0644C64.942 63.4421 66.4569 61.9166 66.4569 60.039V15.9154C66.4569 13.8991 64.814 12.2562 62.8084 12.2562H44.1391Z" fill="#36354C"/>
<path d="M24.2964 29.5816C24.1044 29.5816 23.923 29.5176 23.7737 29.3789C23.4429 29.0908 23.4109 28.5788 23.699 28.2481L36.9809 13.0672C37.2689 12.7365 37.781 12.7045 38.1117 12.9926C38.4424 13.2806 38.4744 13.7927 38.1864 14.1234L24.9045 29.3149C24.7445 29.4962 24.5204 29.5923 24.3071 29.5923L24.2964 29.5816Z" fill="#36354C"/>
<path d="M45.3126 25.1537C41.5894 27.8208 37.5568 28.5995 35.7325 28.8236C35.1565 28.8982 34.7297 29.3783 34.7297 29.9437V38.969C34.7297 41.5934 36.1273 43.7804 36.746 44.7192L36.7674 44.7618C36.9487 45.0605 39.4771 49.1465 45.622 51.1201C45.846 51.1947 46.0807 51.1947 46.3047 51.1201C52.4389 49.1465 54.9779 45.0499 55.1593 44.7618L55.1806 44.7192C55.7994 43.7804 57.1969 41.5934 57.1969 38.969V29.9437C57.1969 29.3783 56.7702 28.8982 56.1941 28.8236C54.3699 28.5995 50.3373 27.8101 46.6141 25.1537C46.2194 24.8763 45.686 24.8763 45.3019 25.1537H45.3126Z" fill="#E7E7F0"/>
<path d="M45.8993 57.4364C44.9072 56.0282 41.8988 56.615 39.8931 61.3516C38.5383 64.5628 37.0127 63.9867 37.0127 63.9867C37.7275 59.5594 40.3839 48.6778 41.2267 43.6211C41.5574 41.6475 41.2907 40.154 40.7999 39.0445C40.0212 37.2949 37.4928 37.5296 37.0447 39.3859C36.4046 42.1062 33.3109 50.9395 33.3109 50.9395C33.3109 50.9395 24.3283 52.1557 22.9734 55.1854C21.6185 58.2152 20.6371 58.866 20.5411 61.821C20.445 64.7761 21.2238 71.5291 20.5411 74.4628C19.8583 77.3966 18.1194 80.437 18.1194 80.437L32.2974 84.5443C35.6259 73.1933 39.8078 74.1215 42.7202 67.4218C44.4805 63.3786 46.3367 58.0658 45.8887 57.4364H45.8993Z" fill="white"/>
<path d="M32.0409 85.3335C31.9662 85.3335 31.8916 85.3335 31.8169 85.3014C31.3901 85.1734 31.1554 84.736 31.2728 84.3093C33.3104 77.375 35.7321 74.8253 37.8657 72.5743C39.2739 71.0808 40.6075 69.6832 41.7383 67.0909C43.5839 62.8449 44.9174 58.727 44.9174 57.7989C44.6934 57.5642 44.3627 57.5428 44.1173 57.5642C43.0931 57.6708 41.5783 58.8017 40.3834 61.6501C38.7619 65.4906 36.8096 64.7972 36.5856 64.7118C36.3082 64.5945 36.1162 64.3278 36.0948 64.0291C36.0095 62.8449 36.7989 59.2604 38.0898 53.5103C38.9112 49.8404 39.7647 46.0532 40.1914 43.4715C40.4581 41.8819 40.3301 40.4951 39.8287 39.3536C39.5726 38.7775 39.0392 38.5961 38.6338 38.6495C38.2285 38.6921 37.7377 38.9482 37.5884 39.5669C37.2043 41.1885 36.5962 43.0768 35.9028 45.2637C34.8253 48.6349 33.5985 52.4648 32.8517 56.4227C32.7663 56.8601 32.3503 57.1374 31.9129 57.0628C31.4755 56.9774 31.1981 56.5614 31.2728 56.124C32.0409 52.0701 33.2784 48.1975 34.3772 44.773C35.0707 42.618 35.6681 40.7618 36.0308 39.1936C36.3082 38.0094 37.2683 37.1666 38.4845 37.0492C39.7007 36.9426 40.7995 37.5827 41.2902 38.7028C41.9303 40.1324 42.0903 41.8286 41.7703 43.7275C41.3329 46.3519 40.4794 50.1711 39.658 53.8516C38.9006 57.2441 38.0578 60.9887 37.7911 62.8769C38.1004 62.5675 38.5058 62.0021 38.9219 61.0207C40.1701 58.0549 42.0583 56.1666 43.9679 55.9639C44.9494 55.8679 45.8029 56.22 46.3256 56.9561C47.2431 58.2576 44.192 65.5226 43.2318 67.7203C41.9943 70.5687 40.5008 72.1369 39.0499 73.6625C36.9376 75.8814 34.7613 78.1751 32.8304 84.7467C32.7237 85.0987 32.4036 85.3228 32.0622 85.3228L32.0409 85.3335Z" fill="#36354C"/>
<path d="M17.8629 81.2264C17.7242 81.2264 17.5855 81.1944 17.4681 81.1197C17.0841 80.8957 16.9561 80.4049 17.1694 80.0315C17.1908 79.9995 18.8657 77.0658 19.5164 74.2814C19.9325 72.4891 19.7618 68.9153 19.6124 66.0455C19.5271 64.4026 19.4524 62.8558 19.4951 61.7889C19.5698 59.5273 20.1352 58.4605 20.9246 56.9989C21.2447 56.4015 21.6074 55.7294 21.9915 54.8546C23.485 51.5262 32.0515 49.9153 33.033 49.7446C33.4597 49.6699 33.8865 49.9579 33.9612 50.3953C34.0358 50.8327 33.7478 51.2488 33.3104 51.3235C29.9606 51.9209 24.3171 53.5851 23.453 55.516C23.0369 56.4442 22.6635 57.1376 22.3328 57.7564C21.5967 59.1326 21.1593 59.954 21.0953 61.8423C21.0633 62.8451 21.138 64.36 21.2127 65.9709C21.362 69.0966 21.5434 72.6278 21.074 74.6441C20.3806 77.6632 18.631 80.7036 18.5563 80.8316C18.4069 81.0877 18.1402 81.237 17.8629 81.237V81.2264Z" fill="#36354C"/>
<path d="M66.1795 73.6943C73.1554 73.6943 78.8106 68.063 78.8106 61.1165C78.8106 54.17 73.1554 48.5387 66.1795 48.5387C59.2035 48.5387 53.5483 54.17 53.5483 61.1165C53.5483 68.063 59.2035 73.6943 66.1795 73.6943Z" fill="#BBF9C5"/>
<path d="M64.8351 64.9358C64.6324 64.9358 64.4297 64.8611 64.2697 64.7011L60.8985 61.3406C60.5892 61.0312 60.5892 60.5192 60.8985 60.2098C61.2079 59.9004 61.72 59.9004 62.0294 60.2098L64.8351 63.0049L70.3292 57.5321C70.6386 57.2227 71.1507 57.2227 71.46 57.5321C71.7694 57.8415 71.7694 58.3535 71.46 58.6629L65.4005 64.6904C65.2405 64.8505 65.0378 64.9251 64.8351 64.9251V64.9358Z" fill="#36354C"/>
</svg>
