<svg width="96" height="96" viewBox="0 0 96 96" fill="none" xmlns="http://www.w3.org/2000/svg">
<path fill-rule="evenodd" clip-rule="evenodd" d="M67.2624 57.6836C64.2144 60.7604 58.8528 62.2052 55.0608 63.77C56.544 79.0196 53.2944 79.0628 39.312 79.538L29.5968 84.4916L24.408 72.674L33.2928 68.0516C34.7088 66.2708 34.7184 64.7636 36.6768 62.4068L36.8544 62.5412L36.672 62.402C38.8224 59.4212 40.2912 56.018 40.9824 52.4036C41.088 51.7556 41.8704 51.3716 42.4464 51.6932L42.3456 51.8948L42.4512 51.6932C45.4656 53.3348 45.9216 56.7332 44.448 60.8612C46.9824 60.8996 69.1968 53.042 67.2576 57.6788H67.2624V57.6836Z" fill="white"/>
<path fill-rule="evenodd" clip-rule="evenodd" d="M50.856 73.1732C48.7968 73.01 47.2752 71.8628 49.9488 71.7092C51.7248 71.6084 53.4672 72.4436 55.104 73.0532C55.1808 72.6356 55.3104 71.234 55.3536 70.7588C54.1488 69.6068 52.92 68.3396 49.3824 68.1476C47.8608 68.066 46.5552 67.394 48.3792 67.0388C51.5184 66.434 53.7936 67.6196 55.3632 68.6036C55.3536 68.2004 55.3392 67.7876 55.32 67.3556C55.2432 67.3172 55.0896 67.3028 55.0944 67.2068C55.1472 64.8164 52.128 63.4676 48.6384 63.9668C47.6304 64.1108 46.9872 63.4724 47.2224 62.7188C47.2224 62.7188 47.2128 62.7188 47.2032 62.7236C42.384 64.2788 44.4528 61.2404 45.144 58.1156C45.4656 55.9268 45.072 54.0644 43.8384 52.7444C43.8864 53.6948 43.7856 54.6836 43.536 55.6868C43.1184 57.3908 42.2832 58.7108 41.5104 60.2516C40.6704 61.9316 40.2 63.7556 39.264 65.4068C37.6656 68.234 35.5728 70.3556 32.8032 72.0452C30.5136 73.4372 28.0704 74.546 25.9248 76.1492L29.5824 84.4772L39.2976 79.5236C47.664 79.2452 52.1808 79.1012 54.1488 75.7748C54.3024 74.0612 52.7616 73.3172 50.8512 73.1684L50.856 73.1732Z" fill="#E7E7F0"/>
<path fill-rule="evenodd" clip-rule="evenodd" d="M60.5952 59.5844C57.0096 60.3572 53.3856 61.01 49.8432 61.9652C52.4016 61.7444 53.4336 62.69 55.0704 63.7604C58.6656 62.282 63.6624 60.9044 66.7632 58.1444C64.7184 58.6628 62.6592 59.138 60.5952 59.5844Z" fill="#E7E7F0"/>
<path d="M29.5968 84.8516C29.4672 84.8516 29.3376 84.7796 29.2752 84.6548C29.184 84.4772 29.256 84.2612 29.4336 84.17L39.1488 79.2164C39.1968 79.1924 39.2496 79.178 39.3024 79.178L39.9552 79.1588C43.4208 79.0676 51.5376 78.8516 53.5728 76.4276C54.0672 75.7556 54.4464 74.6516 54.6864 73.1636C55.1664 70.058 54.9696 66.3572 54.7152 63.8036C54.7008 63.6404 54.7968 63.4868 54.9504 63.4292C56.7696 62.7764 58.9728 61.9508 61.5648 60.7988C61.9056 60.6308 62.2512 60.4676 62.592 60.3092C64.3824 59.4692 65.928 58.7396 66.9936 57.4532C67.1232 57.2804 67.1616 57.05 67.08 56.8676C67.0128 56.7092 66.864 56.6084 66.6672 56.5844C66.648 56.5844 66.6336 56.5844 66.6192 56.5844C65.5824 56.4596 64.6848 56.6036 63.4416 56.8004L62.9328 56.882C61.032 57.2084 58.5264 57.7604 55.056 58.6196C53.6928 58.946 52.2912 59.3108 50.9376 59.6708C48.792 60.2324 46.5744 60.8132 44.5296 61.226C44.4 61.25 44.2704 61.2068 44.184 61.106C44.0976 61.01 44.0736 60.8708 44.1168 60.7508C44.9856 58.3412 45.9024 54.0116 42.336 52.0436C42.3168 52.0388 42.3024 52.0292 42.2832 52.0196C42.1152 51.9236 41.8992 51.9284 41.7072 52.0196C41.5152 52.1156 41.3808 52.2836 41.352 52.4708L41.0208 53.9492C40.3392 57.4916 39.2304 59.4836 37.008 62.5748C36.9984 62.594 36.984 62.6132 36.9696 62.6324C35.8032 64.1636 35.1552 65.4116 34.6368 66.53C34.5504 66.6932 34.4784 66.8564 34.4064 67.0244C34.176 67.5524 33.9312 68.0948 33.4896 68.3684L24.5808 73.0052C24.4032 73.0964 24.1872 73.0292 24.096 72.8516C24.0048 72.674 24.072 72.458 24.2496 72.3668L33.1344 67.7396C33.3648 67.5956 33.5664 67.1396 33.7488 66.7316C33.8304 66.5492 33.9072 66.3668 33.9936 66.2084C34.5216 65.0804 35.1792 63.8036 36.3648 62.2388C36.3744 62.2244 36.3792 62.21 36.3888 62.1956C38.616 59.1092 39.6528 57.2612 40.32 53.8004L40.6464 52.3364C40.7088 51.938 40.9872 51.5684 41.3952 51.3716C41.7792 51.1844 42.216 51.1796 42.576 51.3572C42.5952 51.362 42.6096 51.3716 42.6288 51.3812C45.5328 52.946 46.3632 56.1332 45 60.3908C46.8528 59.9972 48.8304 59.4788 50.7552 58.9748C52.1136 58.6196 53.52 58.25 54.888 57.9236C58.3728 57.0596 60.8928 56.5028 62.8176 56.1716L63.3312 56.09C64.5696 55.8932 65.5488 55.7348 66.672 55.8644C66.6816 55.8644 66.696 55.8644 66.7104 55.8644C67.1904 55.9076 67.5696 56.1716 67.7472 56.5796C67.9344 57.002 67.8624 57.506 67.5648 57.8996C66.3888 59.3204 64.6992 60.1172 62.9088 60.962C62.568 61.1204 62.2272 61.2836 61.8768 61.4516C59.3808 62.5652 57.2448 63.3716 55.464 64.01C55.704 66.5924 55.8768 70.2068 55.4016 73.274C55.1424 74.9012 54.7296 76.0772 54.144 76.8692C51.888 79.562 43.848 79.7732 39.984 79.874L39.4176 79.8884L29.7744 84.8036C29.7216 84.8324 29.664 84.842 29.6112 84.842L29.5968 84.8516Z" fill="#451999"/>
<path d="M48.072 77.2676C47.6496 77.2676 47.1504 77.2628 46.6176 77.2436C45.5184 77.2052 44.5872 77.1188 43.848 76.9844C43.3776 76.9028 42.9984 76.802 42.6864 76.6916C42.2832 76.5428 41.9856 76.37 41.7744 76.1588C41.424 75.7988 41.2032 75.4484 41.1024 75.0836C41.0112 74.7428 41.0304 74.4068 41.1552 74.1092C41.1648 74.0804 41.1792 74.0516 41.1936 74.0276C40.8864 73.8116 40.656 73.5524 40.5168 73.2548C40.32 72.842 40.3008 72.3668 40.464 71.8772C40.536 71.6516 40.6464 71.426 40.8 71.186C40.6272 71.09 40.488 70.994 40.368 70.8932C39.8592 70.4756 39.7632 70.034 39.7776 69.7364C39.7872 69.5108 39.8784 69.2468 40.0464 68.9156C40.1856 68.6516 40.3872 68.3444 40.632 67.9988C41.136 67.3076 41.8224 66.5204 42.5712 65.7764C43.6704 64.682 45.864 62.7236 48.168 61.9412C49.3344 61.5476 50.592 61.442 51.8016 61.6436C51.8208 61.6436 51.8448 61.6532 51.864 61.658C53.0448 61.874 54.2544 62.6996 55.2816 63.482C55.44 63.602 55.4688 63.8276 55.3488 63.986C55.2288 64.1444 55.0032 64.1732 54.8448 64.0532C53.8704 63.3092 52.728 62.5316 51.6816 62.3588C51.6624 62.3588 51.6432 62.3492 51.624 62.3444C50.5488 62.1764 49.4352 62.2724 48.3936 62.6228C46.8096 63.1604 44.8752 64.4948 43.0752 66.2852C42.3552 67.0052 41.6928 67.7636 41.2128 68.4212C40.9824 68.738 40.8048 69.0164 40.68 69.2516C40.5264 69.5492 40.4976 69.7028 40.4928 69.7652C40.4928 69.8324 40.4832 70.058 40.824 70.3364C40.9776 70.4612 41.184 70.586 41.4864 70.7252C41.5872 70.7732 41.6592 70.8596 41.6832 70.97C41.7072 71.0804 41.6832 71.1908 41.616 71.2772L41.5488 71.3588C41.3472 71.6324 41.2176 71.8724 41.1456 72.1028C41.0448 72.4196 41.0496 72.7028 41.1648 72.9476C41.2848 73.202 41.52 73.418 41.8608 73.5956C41.9568 73.6436 42.024 73.7348 42.048 73.8404C42.072 73.946 42.0432 74.0564 41.976 74.1428C41.904 74.2292 41.856 74.306 41.8224 74.3924C41.76 74.546 41.7504 74.7188 41.7984 74.9012C41.8656 75.1364 42.0288 75.3956 42.288 75.6596C42.4176 75.7892 42.6336 75.9092 42.9312 76.0196C43.2048 76.1204 43.5456 76.2068 43.9728 76.2836C44.6832 76.4084 45.5808 76.4948 46.6416 76.5284C47.7072 76.562 48.6336 76.5524 49.0896 76.538C49.416 76.5332 49.6896 76.5236 49.872 76.5188C49.9344 76.5188 49.9968 76.514 50.0448 76.5092C50.0544 76.5092 50.0736 76.5092 50.0928 76.5092C50.1264 76.5092 50.1552 76.5044 50.1888 76.5092C50.208 76.5092 50.2224 76.5092 50.2368 76.5092C50.4336 76.5428 50.5632 76.7348 50.5296 76.9268C50.496 77.1092 50.3472 77.234 50.1552 77.2196C50.1456 77.2196 50.1312 77.2196 50.1216 77.2196C50.0976 77.2196 50.0736 77.2196 50.0688 77.2196C50.0256 77.2196 49.9728 77.2196 49.9104 77.2244C49.7136 77.234 49.4352 77.2388 49.104 77.2436C48.8688 77.2484 48.5088 77.2532 48.072 77.2532V77.2676Z" fill="#451999"/>
<path d="M41.328 71.4213C41.2032 71.4213 41.0832 71.3589 41.016 71.2437C40.9152 71.0709 40.9728 70.8501 41.1456 70.7493C41.6976 70.4277 42.1824 70.0965 42.504 69.8757L42.7056 69.7365C42.8112 69.6693 42.912 69.5973 43.0176 69.5253C43.5744 69.1509 44.2272 68.7045 44.9136 68.2869C45.9216 67.6677 46.7424 67.2453 47.496 66.9621C48.5136 66.5733 49.3584 66.4533 50.088 66.5877C50.2848 66.6261 50.4096 66.8133 50.376 67.0101C50.3376 67.2069 50.1504 67.3317 49.9536 67.2981C49.368 67.1877 48.624 67.2981 47.7504 67.6389C47.04 67.9077 46.2576 68.3109 45.288 68.9061C44.616 69.3189 43.968 69.7557 43.4496 70.1061C43.3104 70.2021 43.2048 70.2741 43.104 70.3413L42.912 70.4709C42.5856 70.6965 42.0864 71.0325 41.5152 71.3685C41.4576 71.4021 41.3952 71.4165 41.3328 71.4165L41.328 71.4213Z" fill="#451999"/>
<path d="M41.6928 74.2772C41.5008 74.2772 41.3376 74.1236 41.3328 73.9268C41.328 73.73 41.4816 73.562 41.6832 73.5572C41.8608 73.5524 42.408 73.3604 42.8448 73.2068C43.0752 73.1252 43.3104 73.0436 43.5408 72.9668C44.1168 72.8036 44.7552 72.6068 45.3024 72.4292L45.7776 72.2804C46.5216 72.05 47.3616 71.7956 48.0912 71.618C48.912 71.4116 49.5264 71.3252 49.9728 71.354C50.1696 71.3636 50.3232 71.5364 50.3136 71.7332C50.304 71.93 50.1408 72.0788 49.9344 72.074C49.5744 72.05 49.008 72.1364 48.2688 72.3188C47.5584 72.4916 46.728 72.746 45.9984 72.9716L45.528 73.1204C44.9712 73.298 44.3232 73.4996 43.752 73.6628C43.5408 73.73 43.3104 73.8164 43.0848 73.8932C42.408 74.1332 41.9808 74.2772 41.7024 74.2868C41.7024 74.2868 41.6976 74.2868 41.6928 74.2868V74.2772Z" fill="#451999"/>
<path d="M51.3744 48.2324C49.2672 45.482 45.9024 40.9076 45.9024 40.9076L82.392 13.0052L87.864 20.3252C90.3888 23.6276 84.2496 32.5316 74.1744 40.2356C64.0992 47.9348 53.8896 51.5156 51.3744 48.2276V48.2324Z" fill="white"/>
<path d="M77.352 19.0869C77.7312 19.0437 78.144 19.1493 78.528 19.4565C81 21.4197 82.8432 24.0501 84.696 26.5893C85.104 27.1509 85.5072 27.7173 85.9056 28.2837C85.9152 28.2981 85.9344 28.3125 85.944 28.3269C88.2624 24.8613 89.0832 21.9381 87.8592 20.3301L82.3872 13.0101L73.5936 19.7301C73.944 19.5861 74.352 19.5957 74.7552 19.8357C74.856 18.7125 76.248 17.7909 77.1552 18.8757C77.2176 18.9477 77.28 19.0149 77.3472 19.0965L77.352 19.0869Z" fill="#FFF7E5"/>
<path d="M57.816 41.5557C57.0336 40.7109 56.304 39.8229 55.7328 38.8485C54.7728 37.7637 53.8224 36.6645 52.9104 35.5413L45.9024 40.8981C45.9024 40.8981 49.272 45.4725 51.3744 48.2229C52.824 50.1141 56.8176 49.7301 61.8672 47.5989C60.4992 45.5973 59.1936 43.5429 57.816 41.5461V41.5557Z" fill="#FFF7E5"/>
<path d="M54.6336 49.8068C53.016 49.8068 51.7872 49.37 51.0816 48.4484L50.4576 47.6324H50.4672C48.3984 44.906 45.6432 41.162 45.6096 41.1188L45.3984 40.8356L82.4592 12.5012L88.1472 20.114C90.8208 23.6132 84.7776 32.5844 74.3856 40.5284C66.7296 46.3796 59.16 49.8116 54.6336 49.8116V49.8068ZM51.7248 48.098C54.2064 51.0116 64.3104 47.3204 73.9488 39.9524C83.6832 32.5124 89.9232 23.6228 87.5712 20.546L82.3152 13.514L46.4016 40.9748C47.1696 42.0164 49.8816 45.6884 51.6624 48.0116L51.7296 48.098H51.7248Z" fill="#451999"/>
<path d="M68.6976 32.9301C78.7776 25.2261 84.9024 16.3125 82.3872 13.0149C79.872 9.72207 69.6624 13.2981 59.5824 20.9973C49.5024 28.7013 43.3728 37.6149 45.8928 40.9125C48.408 44.2053 58.6176 40.6293 68.6976 32.9301Z" fill="white"/>
<path d="M49.1568 42.4965C47.5392 42.4965 46.3104 42.0597 45.6048 41.1381C42.9264 37.6293 48.9696 28.6629 59.3616 20.7141C64.2672 16.9653 69.3552 14.0661 73.6992 12.5445C78.168 10.9797 81.3504 11.0709 82.6704 12.7941C85.3488 16.3029 79.3056 25.2693 68.9136 33.2181C61.2576 39.0693 53.688 42.4965 49.1568 42.4965ZM79.128 12.1509C77.736 12.1509 75.9744 12.5061 73.9344 13.2213C69.6624 14.7189 64.6416 17.5797 59.7936 21.2805C50.0592 28.7253 43.8192 37.6149 46.1712 40.6917C48.5184 43.7685 58.7328 40.0773 68.472 32.6421C78.2064 25.1973 84.4464 16.3077 82.0944 13.2309C81.5424 12.5109 80.5248 12.1509 79.128 12.1509Z" fill="#451999"/>
<path d="M66.9888 31.4516C75.552 25.0052 81.12 17.3972 79.416 14.4548C77.7168 11.5172 69.3936 14.3588 60.8304 20.8052C52.2672 27.2516 46.6992 34.8596 48.4032 37.802C50.1024 40.7396 58.4256 37.898 66.9888 31.4516Z" fill="#FFF7E5"/>
<path d="M70.848 25.2212L67.0608 21.6692L67.8192 21.1796L71.6592 24.6596L70.848 25.2212Z" fill="#451999"/>
<path d="M67.5792 27.4963L63.9696 23.6371L64.7808 23.1235L68.4432 26.9011L67.584 27.4963H67.5792Z" fill="#451999"/>
<path d="M56.7792 32.042L61.5408 24.6404L62.5392 25.9172C63.2208 26.7236 65.0832 26.546 66.6096 25.5236C68.136 24.5012 68.6592 23.162 67.8912 22.442L67.0656 21.6692L67.824 21.1796L68.664 21.938C69.6576 22.8356 69.2592 25.01 67.3152 26.3348C65.3712 27.65 62.5536 27.5684 61.6704 26.4884L61.5648 26.354L57.7392 32.4356L56.7744 32.0516L56.7792 32.042Z" fill="#451999"/>
<path d="M32.6304 48.4388C30.0432 48.386 26.0976 48.3668 26.0976 48.3668L26.6784 14.0228L33.312 14.0708C36.408 14.138 38.7696 21.8756 38.5872 31.3604C38.3952 40.8548 35.7312 48.4964 32.6304 48.434V48.4388Z" fill="white"/>
<path d="M36.5376 17.3972C35.6544 15.3332 34.5456 14.0996 33.3168 14.0756L26.6832 14.0276L26.616 18.1028C29.928 17.9396 33.2304 17.6276 36.5376 17.402V17.3972Z" fill="#FFF7E5"/>
<path d="M34.3824 36.4388C32.6304 36.5924 30.9504 36.9332 29.2224 36.9524C28.2432 37.2452 27.264 37.5476 26.2752 37.7876L26.0976 48.362C26.0976 48.362 30.0432 48.3812 32.6304 48.434C35.1744 48.4868 37.4208 43.3556 38.256 36.2756C36.96 36.29 35.6688 36.3332 34.3872 36.4388H34.3824Z" fill="#FFF7E5"/>
<path d="M32.6688 48.7988C32.6688 48.7988 32.64 48.7988 32.6208 48.7988C30.0672 48.746 26.136 48.7268 26.0928 48.7268H25.728L26.3184 13.6628L33.312 13.7156C37.0512 13.7924 39.1104 22.754 38.9424 31.3748C38.7696 39.962 36.3744 48.8036 32.664 48.8036L32.6688 48.7988ZM32.6352 48.0788C32.6352 48.0788 32.6544 48.0788 32.664 48.0788C35.1936 48.0788 38.0208 41.3828 38.2272 31.3556C38.424 21.2996 35.8416 14.4836 33.3072 14.4308L27.0336 14.3876L26.4672 48.0068C27.504 48.0116 30.5376 48.0356 32.64 48.0788H32.6352Z" fill="#451999"/>
<path d="M31.776 31.3028C31.9632 21.8132 29.6016 14.066 26.5008 14.0084C23.4 13.946 20.7312 21.5876 20.544 31.082C20.3568 40.5716 22.7184 48.3188 25.8192 48.3764C28.92 48.4388 31.5888 40.7972 31.776 31.3028Z" fill="white"/>
<path d="M25.8528 48.7412C25.8528 48.7412 25.824 48.7412 25.8096 48.7412C24.144 48.7076 22.6512 46.802 21.6048 43.3748C20.5968 40.0724 20.0928 35.7044 20.184 31.0772C20.2752 26.45 20.952 22.1012 22.0896 18.842C23.2608 15.4868 24.8112 13.6484 26.4624 13.6484C26.4768 13.6484 26.4912 13.6484 26.5056 13.6484C28.1712 13.682 29.664 15.5876 30.7104 19.0148C31.7184 22.3172 32.2224 26.6852 32.1312 31.3124C32.04 35.9396 31.3632 40.2836 30.2256 43.5476C29.0544 46.9028 27.504 48.7412 25.8528 48.7412ZM26.4624 14.3684C25.1568 14.3684 23.8128 16.082 22.7664 19.082C21.6528 22.274 20.9904 26.5364 20.8992 31.0916C20.808 35.642 21.3024 39.9332 22.2864 43.1636C23.2176 46.226 24.5088 47.9924 25.8192 48.0212C27.1248 48.0356 28.488 46.3316 29.544 43.3076C30.6576 40.1156 31.32 35.8532 31.4112 31.298C31.5024 26.7476 31.008 22.4564 30.024 19.226C29.0928 16.1636 27.8016 14.3972 26.4912 14.3684C26.4816 14.3684 26.472 14.3684 26.4624 14.3684Z" fill="#451999"/>
<path d="M29.8368 30.9092C29.9232 23.1476 28.1136 16.9172 25.8 16.9988C23.4816 17.0804 21.528 23.4404 21.4416 31.2068C21.3552 38.9684 23.1648 45.1988 25.4784 45.1172C27.7968 45.0356 29.7504 38.6756 29.8368 30.9092Z" fill="#FFF7E5"/>
<path d="M28.2096 27.602L24.6768 25.9844L24.744 25.0964L28.2768 26.8772L28.2144 27.602H28.2096Z" fill="#451999"/>
<path d="M27.9648 30.4148L24.3984 29.4116L24.4704 28.538L28.0272 29.6948L27.9648 30.4148Z" fill="#451999"/>
<path d="M26.0256 37.7012L23.7984 31.5812L25.1856 31.8644C25.9536 31.994 26.64 30.9668 26.7552 29.5748C26.88 28.1876 26.4 26.7716 25.632 26.4164L24.672 25.9748L24.7584 25.1012L25.7184 25.5812C26.7024 26.0804 27.5712 28.0724 27.408 29.81C27.24 31.5524 26.1216 32.81 25.1232 32.6804L24.9984 32.6372L26.5488 37.2404L26.0256 37.6964V37.7012Z" fill="#451999"/>
<path d="M25.1328 57.9476L12.3024 48.0212C11.4768 47.3828 10.296 47.5316 9.65757 48.3572L8.18877 50.2532C7.55037 51.0788 7.69917 52.2596 8.52477 52.8932L21.3552 62.8196C22.1808 63.458 23.3616 63.3092 24 62.4836L25.4688 60.5876C26.1072 59.762 25.9584 58.5812 25.1328 57.9476Z" fill="#FFE380"/>
<path d="M19.7568 53.7572L13.8288 49.1732C12.8352 48.6068 12.048 48.4436 11.1168 49.5188L9.71043 51.338C9.05763 52.1828 9.21123 53.3972 10.056 54.05L15.984 58.6532C16.8288 59.306 18.048 59.1524 18.7008 58.3028L20.112 56.4692C20.76 55.6244 20.6064 54.4148 19.7616 53.762L19.7568 53.7572Z" fill="white"/>
<path d="M22.5072 63.5779C22.0128 63.5779 21.5328 63.4147 21.1392 63.1075L8.30878 53.1763C7.83358 52.8115 7.53118 52.2835 7.45438 51.6883C7.37758 51.0931 7.54078 50.5027 7.90558 50.0275L9.37438 48.1315C9.74398 47.6563 10.272 47.3539 10.8672 47.2771C11.4576 47.2003 12.0528 47.3635 12.5232 47.7283L25.3536 57.6547C25.8288 58.0195 26.1312 58.5475 26.208 59.1427C26.2848 59.7379 26.1216 60.3283 25.7568 60.8035L24.288 62.6995C23.9184 63.1747 23.3904 63.4771 22.7952 63.5539C22.6992 63.5683 22.6032 63.5731 22.5072 63.5731V63.5779ZM11.1552 47.9827C11.0928 47.9827 11.0256 47.9827 10.9584 47.9971C10.5552 48.0499 10.1952 48.2563 9.94558 48.5779L8.47678 50.4739C8.22718 50.7955 8.11678 51.1987 8.16958 51.6019C8.22238 52.0051 8.42878 52.3651 8.75038 52.6099L21.5808 62.5411C21.9024 62.7907 22.3056 62.9011 22.7088 62.8483C23.112 62.7955 23.472 62.5891 23.7216 62.2675L25.1904 60.3715C25.44 60.0499 25.5504 59.6467 25.4976 59.2435C25.4448 58.8403 25.2384 58.4803 24.9168 58.2355L12.0864 48.3043C11.8176 48.0931 11.4912 47.9827 11.1552 47.9827Z" fill="#451999"/>
<path d="M16.4064 44.4548L14.2944 40.1108L11.0928 41.7092L7.20001 37.2836L8.28001 36.3284L11.4432 39.9236L14.952 38.1716L17.7024 43.826L16.4064 44.4548Z" fill="#FFE380"/>
<path fill-rule="evenodd" clip-rule="evenodd" d="M52.1616 13.7924L51.0336 15.6308C50.9616 15.7556 50.9424 15.9092 51.0048 16.0436L51.8736 18.0116C52.0176 18.3476 51.72 18.7076 51.3648 18.6212L49.272 18.1172C49.1328 18.0788 48.9792 18.1172 48.8736 18.218L47.2704 19.658C46.9968 19.9028 46.56 19.7252 46.536 19.3652L46.368 17.2148C46.3536 17.066 46.272 16.9364 46.1472 16.8644L44.2848 15.7844C43.9632 15.602 43.9968 15.1268 44.3376 14.9924L46.3296 14.1716C46.464 14.114 46.5648 13.9988 46.5936 13.8596L47.0448 11.7572C47.1216 11.3972 47.5776 11.282 47.8128 11.5604L49.2096 13.202C49.3008 13.3124 49.4448 13.3748 49.5936 13.3556L51.7344 13.1348C52.0992 13.0964 52.3488 13.4948 52.1568 13.8068H52.1616V13.7924Z" fill="#C1F5C8"/>
<path d="M46.9777 20.1236C46.8769 20.1236 46.7712 20.1044 46.6752 20.066C46.392 19.9508 46.2 19.6916 46.176 19.3844L46.008 17.234C46.008 17.2052 45.9889 17.1812 45.9649 17.1668L44.1024 16.0916C43.8336 15.938 43.6801 15.65 43.7041 15.3428C43.7233 15.0356 43.9152 14.7716 44.2032 14.6564L46.1905 13.8356C46.1905 13.8356 46.2337 13.8068 46.2385 13.7876L46.6896 11.6756C46.752 11.378 46.9776 11.1428 47.2752 11.066C47.5776 10.9892 47.8849 11.0852 48.0865 11.3204L49.4832 12.962C49.4832 12.962 49.5265 12.9956 49.5505 12.9908L51.696 12.77C52.008 12.7364 52.2961 12.8852 52.4593 13.1444C52.6081 13.3844 52.6177 13.6772 52.4929 13.922C52.4833 13.9412 52.4737 13.9604 52.4641 13.9796L51.3361 15.818C51.3361 15.818 51.3169 15.8708 51.3265 15.89L52.2001 17.8628C52.3249 18.146 52.2769 18.4724 52.0753 18.7076C51.8785 18.9428 51.5665 19.0388 51.2737 18.9668L49.1809 18.4628C49.1569 18.458 49.1233 18.4628 49.1041 18.482L47.5057 19.9172C47.3521 20.0516 47.1649 20.1236 46.9729 20.1236H46.9777ZM47.4769 11.7572C47.4769 11.7572 47.4625 11.7572 47.4529 11.7572C47.4193 11.7668 47.4 11.786 47.3952 11.8196L46.9441 13.9268C46.8961 14.1764 46.7184 14.3924 46.4688 14.498L44.4721 15.3236C44.4385 15.338 44.4241 15.3572 44.4193 15.3908C44.4193 15.4244 44.4289 15.4484 44.4577 15.4676L46.3249 16.5476C46.5553 16.682 46.6992 16.922 46.7232 17.1812L46.8913 19.3316C46.8913 19.37 46.9201 19.3892 46.9393 19.3988C46.9585 19.4084 46.9969 19.4132 47.0257 19.3844L48.6241 17.9444C48.8257 17.7668 49.1041 17.6996 49.3585 17.7668L51.4465 18.2708C51.4801 18.2804 51.5089 18.2708 51.5281 18.2468C51.5425 18.2276 51.5568 18.1988 51.5424 18.1556L50.6737 16.1876C50.5681 15.9572 50.5825 15.6788 50.7217 15.4436L51.8257 13.6484C51.8257 13.6484 51.84 13.6148 51.8496 13.6004C51.8544 13.5908 51.8736 13.562 51.8496 13.5188C51.8352 13.4996 51.8113 13.4756 51.7681 13.4804L49.6273 13.7012C49.3681 13.73 49.1041 13.6244 48.9313 13.418L47.5345 11.7764C47.5345 11.7764 47.4961 11.7476 47.4769 11.7476V11.7572Z" fill="#451999"/>
<path fill-rule="evenodd" clip-rule="evenodd" d="M70.5984 68.8628L69.7344 70.274C69.6768 70.37 69.6672 70.49 69.7152 70.5908L70.3824 72.1028C70.4928 72.362 70.2624 72.6356 69.9936 72.5684L68.3856 72.1796C68.28 72.1508 68.16 72.1796 68.0784 72.2564L66.8496 73.3604C66.6384 73.5476 66.3072 73.4132 66.2832 73.1348L66.1536 71.4836C66.144 71.3684 66.0816 71.2724 65.9856 71.2148L64.5552 70.3844C64.3104 70.2452 64.3344 69.8804 64.5936 69.7796L66.12 69.146C66.2208 69.1028 66.3024 69.0116 66.3216 68.906L66.6672 67.2932C66.7248 67.0196 67.0752 66.9284 67.2576 67.1444L68.328 68.4068C68.4 68.4932 68.5104 68.5364 68.6208 68.5268L70.2672 68.3588C70.5456 68.33 70.7424 68.6324 70.5888 68.8724L70.5984 68.8628Z" fill="#451999"/>
<path d="M80.16 52.4901L78.5472 48.3813L70.632 50.8581L70.2048 49.4805L79.3968 46.6101L81.0672 50.8581L88.3584 49.5141L88.6224 50.9301L80.16 52.4901Z" fill="#FFE380"/>
</svg>
